HIERARCHY
ROOT Hips
{
	OFFSET 0.000000 0.000000 0.000000
	CHANNELS 6 Xposition Yposition Zposition Xrotation Yrotation Zrotation
	JOINT LeftUpLeg_virtual
	{
		OFFSET 0.000000 0.000000 0.000000
		CHANNELS 3 Xrotation Yrotation Zrotation
		JOINT LeftUpLeg
		{
			OFFSET 15.427100 -6.655098 0.678600
			CHANNELS 3 Xrotation Yrotation Zrotation
			JOINT LeftLeg
			{
				OFFSET 4.081073 -39.591068 13.024000
				CHANNELS 3 Xrotation Yrotation Zrotation
				JOINT LeftFoot
				{
					OFFSET -4.081074 -37.707932 -15.979700
					CHANNELS 3 Xrotation Yrotation Zrotation
					JOINT LeftToeBase
					{
						OFFSET 5.346399 -15.068900 20.645000
						CHANNELS 3 Xrotation Yrotation Zrotation
						JOINT LeftToe_End
						{
							OFFSET 2.754700 0.931300 11.300900
							CHANNELS 3 Xrotation Yrotation Zrotation
							End Site
							{
								OFFSET 0 0 0
							}
						}
					}
				}
			}
		}
	}
	JOINT RightUpLeg_virtual
	{
		OFFSET 0.000000 0.000000 0.000000
		CHANNELS 3 Xrotation Yrotation Zrotation
		JOINT RightUpLeg
		{
			OFFSET -15.569500 -6.655098 0.678600
			CHANNELS 3 Xrotation Yrotation Zrotation
			JOINT RightLeg
			{
				OFFSET -4.081825 -39.591045 13.023800
				CHANNELS 3 Xrotation Yrotation Zrotation
				JOINT RightFoot
				{
					OFFSET 4.081824 -37.707954 -15.979600
					CHANNELS 3 Xrotation Yrotation Zrotation
					JOINT RightToeBase
					{
						OFFSET -5.346400 -15.068900 20.645000
						CHANNELS 3 Xrotation Yrotation Zrotation
						JOINT RightToe_End
						{
							OFFSET -2.754700 0.931300 11.300900
							CHANNELS 3 Xrotation Yrotation Zrotation
							End Site
							{
								OFFSET 0 0 0
							}
						}
					}
				}
			}
		}
	}
	JOINT Spine_virtual
	{
		OFFSET 0.000000 0.000000 0.000000
		CHANNELS 3 Xrotation Yrotation Zrotation
		JOINT Spine
		{
			OFFSET -0.279200 12.230698 -2.892100
			CHANNELS 3 Xrotation Yrotation Zrotation
			JOINT Spine1
			{
				OFFSET -0.232667 10.192268 -1.242267
				CHANNELS 3 Xrotation Yrotation Zrotation
				JOINT Spine1_split
				{
					OFFSET -0.232667 10.192268 -1.242267
					CHANNELS 3 Xrotation Yrotation Zrotation
					JOINT Spine2
					{
						OFFSET -0.232667 10.192268 -1.242267
						CHANNELS 3 Xrotation Yrotation Zrotation
						JOINT Neck_virtual
						{
							OFFSET 0.000000 0.000000 0.000000
							CHANNELS 3 Xrotation Yrotation Zrotation
							JOINT Neck
							{
								OFFSET -0.418800 17.814194 8.416900
								CHANNELS 3 Xrotation Yrotation Zrotation
								JOINT Head
								{
									OFFSET 0.000000 7.031097 3.806800
									CHANNELS 3 Xrotation Yrotation Zrotation
									JOINT HeadTop_End
									{
										OFFSET 0.000000 24.646606 12.978600
										CHANNELS 3 Xrotation Yrotation Zrotation
										End Site
										{
											OFFSET 0 0 0
										}
									}
								}
							}
						}
						JOINT LeftShoulder_virtual
						{
							OFFSET 0.000000 0.000000 0.000000
							CHANNELS 3 Xrotation Yrotation Zrotation
							JOINT LeftShoulder
							{
								OFFSET 8.476499 7.247704 -3.868750
								CHANNELS 3 Xrotation Yrotation Zrotation
								JOINT LeftShoulder_split
								{
									OFFSET 8.476499 7.247704 -3.868750
									CHANNELS 3 Xrotation Yrotation Zrotation
									JOINT LeftArm
									{
										OFFSET 9.308998 -2.777710 0.208600
										CHANNELS 3 Xrotation Yrotation Zrotation
										JOINT LeftForeArm
										{
											OFFSET 29.972298 0.000000 0.000000
											CHANNELS 3 Xrotation Yrotation Zrotation
											JOINT LeftHand
											{
												OFFSET 26.026505 0.000000 0.000000
												CHANNELS 3 Xrotation Yrotation Zrotation
												End Site
												{
													OFFSET 0 0 0
												}
											}
										}
									}
								}
							}
						}
						JOINT RightShoulder_virtual
						{
							OFFSET 0.000000 0.000000 0.000000
							CHANNELS 3 Xrotation Yrotation Zrotation
							JOINT RightShoulder
							{
								OFFSET -7.570500 7.247704 -3.868750
								CHANNELS 3 Xrotation Yrotation Zrotation
								JOINT RightShoulder_split
								{
									OFFSET -7.570500 7.247704 -3.868750
									CHANNELS 3 Xrotation Yrotation Zrotation
									JOINT RightArm
									{
										OFFSET -9.308998 -2.777710 0.208500
										CHANNELS 3 Xrotation Yrotation Zrotation
										JOINT RightForeArm
										{
											OFFSET -29.972300 0.000000 0.000000
											CHANNELS 3 Xrotation Yrotation Zrotation
											JOINT RightHand
											{
												OFFSET -26.026505 0.000000 0.000000
												CHANNELS 3 Xrotation Yrotation Zrotation
												End Site
												{
													OFFSET 0 0 0
												}
											}
										}
									}
								}
							}
						}
					}
				}
			}
		}
	}
}
MOTION
Frames: 8
Frame Time: 0.03333333
-0.922404 40.029537 -19.654505 0.000000 0.000000 0.000000 70.075705 1.725171 -1.710271 4.245565 14.899926 11.584475 11.245974 8.540604 1.849043 -33.901685 2.843815 -7.419191 -30.277942 1.886171 -8.745404 0.000000 0.000000 0.000000 70.474957 -2.530120 -1.518681 0.856873 -5.722976 -12.570245 10.160493 2.338876 5.289611 -23.323240 5.979874 11.257786 -65.130635 -2.830312 6.848664 0.000000 0.000000 0.000000 74.170336 0.804421 -2.418903 -1.208213 1.583514 -1.108447 1.902045 0.232248 0.376962 0.496335 -1.006075 1.229273 0.000000 0.000000 0.000000 0.786376 -0.241690 0.147311 -10.139077 -0.564485 3.323241 8.870168 7.284580 -5.763422 0.000000 0.000000 0.000000 1.079697 -0.362813 0.765689 1.540736 -1.531648 2.375835 1.493992 0.891509 -2.049503 -39.670855 -56.358025 -47.968176 -0.291263 -19.641650 0.322267 0.000000 0.000000 0.000000 0.897932 -0.049384 1.047090 1.834864 2.484439 13.957763 2.792975 5.930272 -1.368570 -58.125579 57.135414 53.788320 -0.698404 20.810133 0.996530 0.000000 0.000000 0.000000 
-1.102646 40.079762 -19.659883 0.000000 0.000000 0.000000 69.946164 1.755194 -1.640896 4.331130 14.882680 11.563117 11.344912 8.607460 1.813995 -33.817298 2.771658 -7.588584 -30.413753 1.898188 -8.634048 0.000000 0.000000 0.000000 70.480039 -2.705493 -1.375125 0.627636 -5.531707 -12.626196 10.319597 2.431881 5.312034 -23.541603 5.893147 11.521477 -64.674931 -2.755801 6.833939 0.000000 0.000000 0.000000 74.322656 0.868857 -2.461650 -1.091983 1.623412 -1.136407 2.017366 0.216582 0.381533 0.538149 -1.254380 1.155133 0.000000 0.000000 0.000000 0.770461 -0.244665 0.196367 -10.418356 -0.623008 3.267578 8.908951 7.290034 -5.991738 0.000000 0.000000 0.000000 1.114980 -0.354112 0.766180 1.530814 -1.475198 2.439512 1.860941 1.152063 -1.550635 -40.168141 -56.335626 -48.343092 -0.169448 -19.276561 0.182304 0.000000 0.000000 0.000000 1.005757 -0.014815 1.093648 1.745475 2.686610 13.896973 2.907579 5.807516 -1.334943 -57.542438 56.371003 52.847776 -0.690939 20.950892 1.286427 0.000000 0.000000 0.000000 
-1.194968 40.173374 -19.707182 0.000000 0.000000 0.000000 69.759317 1.703716 -1.560827 4.439329 14.641091 11.530336 11.419305 8.782542 2.045210 -33.616501 2.728983 -7.847448 -30.988794 1.952552 -8.431883 0.000000 0.000000 0.000000 70.572677 -2.870491 -1.272246 0.258167 -5.471539 -12.518345 10.147456 2.326314 5.257063 -23.529694 5.672922 11.632370 -64.344132 -2.693129 6.839244 0.000000 0.000000 0.000000 74.442928 0.882211 -2.423324 -0.914121 1.622675 -1.218319 2.198057 0.224831 0.399951 0.603265 -1.508842 1.119555 0.000000 0.000000 0.000000 0.782290 -0.238146 0.266093 -10.483474 -0.633682 3.205448 8.855859 7.149184 -6.073642 0.000000 0.000000 0.000000 1.235838 -0.346988 0.772190 1.538700 -1.447931 2.805924 2.188690 1.470197 -1.084904 -40.470503 -56.683293 -48.760229 0.009036 -19.433401 0.078559 0.000000 0.000000 0.000000 1.194879 0.033350 1.155488 1.538073 3.269145 13.822654 3.095746 5.724469 -1.284864 -54.953762 54.979994 49.939010 -0.726553 22.831191 1.551634 0.000000 0.000000 0.000000 
-1.245306 40.263729 -19.800619 0.000000 0.000000 0.000000 69.565012 1.684608 -1.522875 4.537731 14.299407 11.408299 11.183590 9.137713 2.477089 -33.348279 2.803845 -7.949590 -31.329736 2.054714 -8.334593 0.000000 0.000000 0.000000 70.746717 -2.986813 -1.180469 -0.158462 -5.561354 -12.259204 9.758663 2.074573 5.129976 -23.277426 5.339724 11.678863 -64.153836 -2.635135 6.849710 0.000000 0.000000 0.000000 74.453522 0.810695 -2.232609 -0.729712 1.571038 -1.344467 2.412717 0.238723 0.419325 0.630983 -1.687988 1.137370 0.000000 0.000000 0.000000 0.829936 -0.230737 0.353290 -10.348908 -0.588225 3.127724 8.620036 6.890178 -6.018385 0.000000 0.000000 0.000000 1.416679 -0.342444 0.789293 1.562329 -1.372986 3.502598 2.458757 1.689173 -0.757002 -40.670030 -57.216334 -49.233605 0.243185 -20.180890 0.014054 0.000000 0.000000 0.000000 1.425438 0.078964 1.227078 1.217708 4.273355 13.689122 3.252226 5.747189 -1.260180 -51.154097 53.079562 45.936263 -0.803285 25.980318 1.790749 0.000000 0.000000 0.000000 
-1.297228 40.379772 -19.926001 0.000000 0.000000 0.000000 69.425041 1.711058 -1.533608 4.682632 14.016183 11.216455 10.321991 9.724272 2.970317 -32.998468 2.929922 -7.748464 -31.164029 2.130456 -8.348935 0.000000 0.000000 0.000000 70.925900 -3.080332 -1.067973 -0.613824 -5.784628 -11.932025 9.392381 1.789136 4.961093 -22.869123 4.968327 11.822412 -63.837461 -2.572471 6.867412 0.000000 0.000000 0.000000 74.365208 0.724213 -1.969420 -0.571944 1.471177 -1.492130 2.629927 0.242053 0.423062 0.637890 -1.970633 1.150576 0.000000 0.000000 0.000000 0.911791 -0.236872 0.451063 -10.029667 -0.487029 3.016128 8.203660 6.606659 -5.867927 0.000000 0.000000 0.000000 1.633133 -0.348163 0.808198 1.591602 -1.194286 4.478438 2.581381 1.706008 -0.623955 -40.706462 -57.641216 -49.571109 0.519591 -21.433354 -0.002224 0.000000 0.000000 0.000000 1.669081 0.104742 1.305269 0.784955 5.734778 13.419373 3.451438 5.773538 -1.295579 -47.006151 50.860314 41.666268 -0.941469 29.836927 2.002133 0.000000 0.000000 0.000000 
-1.376081 40.588428 -20.020098 0.000000 0.000000 0.000000 69.382913 1.710631 -1.540382 4.762931 13.774980 11.115582 8.939914 10.154662 3.382383 -32.087611 3.034306 -7.828354 -30.982503 2.120242 -8.176906 0.000000 0.000000 0.000000 71.032396 -3.215633 -0.933255 -1.079670 -6.155959 -11.569401 9.181636 1.528510 4.809400 -22.407409 4.582179 12.152284 -63.174585 -2.501132 6.901198 0.000000 0.000000 0.000000 74.266334 0.645021 -1.712652 -0.470682 1.351955 -1.614193 2.831824 0.220661 0.398905 0.566770 -2.180540 1.121206 0.000000 0.000000 0.000000 1.021892 -0.260551 0.547788 -9.616138 -0.359285 2.866442 7.663103 6.314585 -5.653424 0.000000 0.000000 0.000000 1.870992 -0.364896 0.813449 1.618095 -0.942567 5.656932 2.570678 1.543824 -0.579588 -40.461665 -57.708958 -49.581620 0.831073 -23.101595 0.004203 0.000000 0.000000 0.000000 1.933055 0.110277 1.374524 0.271475 7.686456 13.006401 3.557444 5.689837 -1.363208 -43.099173 48.492622 37.710178 -1.123050 33.774678 2.198049 0.000000 0.000000 0.000000 
-1.509808 40.893120 -20.127687 0.000000 0.000000 0.000000 69.476165 1.595507 -1.529765 4.724837 13.676406 11.113128 7.319835 10.437901 3.715640 -30.810410 3.037769 -7.978010 -31.060080 1.942000 -7.640098 0.000000 0.000000 0.000000 71.071171 -3.498281 -0.790651 -1.520408 -6.642800 -11.065563 9.007283 1.289409 4.609421 -22.049714 4.152224 12.670448 -62.242264 -2.446184 6.961830 0.000000 0.000000 0.000000 74.247756 0.544549 -1.509591 -0.428157 1.246476 -1.665040 3.032341 0.178282 0.342481 0.430118 -2.333878 1.048807 0.000000 0.000000 0.000000 1.169464 -0.301254 0.635597 -9.216119 -0.240382 2.695369 7.059988 6.041435 -5.406674 0.000000 0.000000 0.000000 2.146929 -0.390503 0.786092 1.640438 -0.719501 7.012594 2.567682 1.189017 -0.630435 -39.824084 -57.303573 -49.050935 1.111041 -25.062932 0.005039 0.000000 0.000000 0.000000 2.223428 0.108132 1.432856 -0.297233 10.075881 12.544506 3.560464 5.487908 -1.443534 -39.718971 46.056959 34.213445 -1.322431 37.286932 2.393771 0.000000 0.000000 0.000000 
-1.688379 41.348530 -20.278418 0.000000 0.000000 0.000000 69.654447 1.319185 -1.532047 4.569608 13.657627 11.083643 5.950619 10.672868 4.025377 -29.509047 3.073149 -8.054723 -31.078003 1.611239 -6.798292 0.000000 0.000000 0.000000 71.105336 -3.927919 -0.687730 -1.889464 -7.167817 -10.340710 8.761218 1.039824 4.255727 -21.977788 3.683304 13.205173 -61.119722 -2.427352 7.074478 0.000000 0.000000 0.000000 74.317171 0.359108 -1.388837 -0.363357 1.198899 -1.624165 3.250454 0.136730 0.269547 0.263360 -2.289350 1.000991 0.000000 0.000000 0.000000 1.343425 -0.342578 0.693932 -8.918405 -0.164974 2.545704 6.455844 5.788847 -5.136725 0.000000 0.000000 0.000000 2.483734 -0.412819 0.728834 1.676111 -0.659342 8.486489 2.594132 0.652182 -0.838420 -38.732780 -56.422523 -47.822638 1.303080 -27.190085 -0.028932 0.000000 0.000000 0.000000 2.575105 0.114664 1.460659 -0.894318 12.805566 12.116939 3.523497 5.153063 -1.561906 -36.854813 43.614754 31.062280 -1.484411 40.222800 2.608098 0.000000 0.000000 0.000000 
